<?xml version="1.0" encoding="UTF-8" standalone="no" ?>
<!DOCTYPE svg PUBLIC "-//W3C//DTD SVG 1.1//EN" "http://www.w3.org/Graphics/SVG/1.1/DTD/svg11.dtd">
<svg xmlns="http://www.w3.org/2000/svg" xmlns:xlink="http://www.w3.org/1999/xlink" version="1.1" width="1080" height="1080" viewBox="0 0 1080 1080" xml:space="preserve">
<desc>Created with Fabric.js 5.2.4</desc>
<defs>
</defs>
<g transform="matrix(1 0 0 1 540 540)" id="5335efec-94b4-4d90-8fca-d9cd6b47026b"  >
<rect style="stroke: none; stroke-width: 1; stroke-dasharray: none; stroke-linecap: butt; stroke-dashoffset: 0; stroke-linejoin: miter; stroke-miterlimit: 4; fill: rgb(255,255,255); fill-rule: nonzero; opacity: 1; visibility: hidden;" vector-effect="non-scaling-stroke"  x="-540" y="-540" rx="0" ry="0" width="1080" height="1080" />
</g>
<g transform="matrix(1 0 0 1 540 540)" id="6705a602-248c-478d-8ee4-a76fb96b0dcb"  >
</g>
<g transform="matrix(1 0 0 1 540 540)" id="svg_1"  >
<path style="stroke: rgb(119,255,25); stroke-width: 0; stroke-dasharray: none; stroke-linecap: butt; stroke-dashoffset: 0; stroke-linejoin: miter; stroke-miterlimit: 4; fill: rgb(255,255,255); fill-rule: nonzero; opacity: 1;" vector-effect="non-scaling-stroke"  transform=" translate(-500.5, -177.06)" d="M 113.15 352.62 C 83.53 351.46 59.300000000000004 343.42 40.35000000000001 328.48 C 36.74000000000001 325.63 28.120000000000008 317.08000000000004 25.23000000000001 313.47 C 17.55000000000001 303.89000000000004 12.320000000000011 294.56 8.84000000000001 284.22 C -1.88999999999999 252.36 3.6300000000000106 210.57000000000002 24.62000000000001 164.69000000000003 C 42.58000000000001 125.42000000000002 70.31 86.47000000000003 118.68 32.52000000000004 C 125.81 24.580000000000037 147.02 1.3600000000000385 147.16 1.3600000000000385 C 147.21 1.3600000000000385 146.06 3.3500000000000387 144.60999999999999 5.770000000000039 C 132.02999999999997 26.670000000000037 121.26999999999998 51.28000000000004 115.40999999999998 72.59000000000003 C 105.98999999999998 106.78000000000003 107.12999999999998 136.13000000000002 118.72999999999998 158.88000000000005 C 126.73999999999998 174.56000000000006 140.46999999999997 188.13000000000005 155.90999999999997 195.64000000000004 C 182.93999999999997 208.77000000000004 222.50999999999996 209.86000000000004 270.83 198.81000000000003 C 274.15999999999997 198.05000000000004 439 154.64000000000004 637.17 102.35000000000004 C 835.3299999999999 50.05000000000004 997.49 7.290000000000035 997.51 7.330000000000041 C 997.5699999999999 7.380000000000041 537.13 202.81000000000003 298.1 304.20000000000005 C 260.25 320.25000000000006 250.13000000000002 324.30000000000007 232.34000000000003 330.51000000000005 C 186.84000000000003 346.35 146.10000000000002 353.9200000000001 113.16000000000003 352.62000000000006 z" stroke-linecap="round" />
</g>
</svg>